# xmcd CD database file
#
# Track frame offsets:
#	150
#	11896
#	22977
#	34619
#	44142
#	48115
#	60778
#	73213
#	86154
#	102612
#	117117
#	127404
#	139156
#	147848
#	161589
#
# Disc length: 2285 seconds
#
# Revision: 0
# Processed by: cddbd v1.5.2PL0 Copyright (c) Steve Scherf et al.
# Submitted via: CDex 1.79
#
DISCID=d908eb0f
DTITLE=Mixed Artists - Country Outlaws
DYEAR=2007
DGENRE=Country
TTITLE0=As Soon As I Hang Up The Phone - Conway Twitty
TTITLE1=Lonesome Number One - Don Gibson
TTITLE2=White Lightnin' - George Jones
TTITLE3=Chug-A-Lug - Roger Miller
TTITLE4=Is Anybody Goin' To San Antone - Charley Pride
TTITLE5=Jackson - Johnny Cash
TTITLE6=Streets Of Baltimore - Bobby Bare
TTITLE7=Amanda - Don Williams
TTITLE8=Today I Started Loving You Again - Merle Haggard
TTITLE9=Saginaw Michigan - Faron Young
TTITLE10=On The Road Again - Willie Nelson
TTITLE11=Me And Bobby McGee - Kenny Rogers
TTITLE12=Love's Gonna Live Here - Waylon Jennings
TTITLE13=Big Bad John - Jimmy Dean
TTITLE14=Fraulein - Mickey Gilley
EXTD=YEAR: 2007
EXTT0=
EXTT1=
EXTT2=
EXTT3=
EXTT4=
EXTT5=
EXTT6=
EXTT7=
EXTT8=
EXTT9=
EXTT10=
EXTT11=
EXTT12=
EXTT13=
EXTT14=
PLAYORDER=
